<svg width="20" height="20" viewBox="0 0 20 20" fill="none" xmlns="http://www.w3.org/2000/svg">
<path d="M8.45702 14.3878C5.8789 14.0813 4.0625 12.2615 4.0625 9.90539C4.0625 8.94761 4.41406 7.91321 5 7.22361C4.74608 6.59147 4.78515 5.25058 5.07812 4.69508C5.85938 4.59929 6.91406 5.00157 7.53906 5.55707C8.28125 5.3272 9.0625 5.21227 10.0195 5.21227C10.9766 5.21227 11.7578 5.3272 12.4609 5.53792C13.0664 5.00157 14.1406 4.59929 14.9219 4.69508C15.1953 5.21227 15.2344 6.55316 14.9805 7.20444C15.6055 7.93236 15.9375 8.9093 15.9375 9.90539C15.9375 12.2615 14.1211 14.043 11.5039 14.3686C12.168 14.79 12.6172 15.7095 12.6172 16.7631V18.7553C12.6172 19.3299 13.1055 19.6556 13.6914 19.4257C17.2266 18.1039 20 14.6368 20 10.346C20 4.92494 15.5078 0.5 9.98046 0.5C4.45312 0.5 0 4.92492 0 10.346C0 14.5985 2.7539 18.1231 6.46483 19.4449C6.99219 19.6363 7.5 19.2917 7.5 18.7745V17.242C7.22656 17.3569 6.875 17.4335 6.5625 17.4335C5.27344 17.4335 4.51171 16.7439 3.96483 15.4605C3.75 14.9433 3.51562 14.6368 3.0664 14.5793C2.83202 14.5602 2.7539 14.4644 2.7539 14.3495C2.7539 14.1196 3.14452 13.9472 3.53515 13.9472C4.10156 13.9472 4.58983 14.292 5.09765 15.0008C5.48827 15.5563 5.89844 15.8053 6.38671 15.8053C6.875 15.8053 7.1875 15.6329 7.63671 15.1923C7.96875 14.8667 8.22265 14.5793 8.45702 14.3878Z" fill="white"/>
</svg>
